<svg width="32" height="32" viewBox="0 0 32 32" fill="none" xmlns="http://www.w3.org/2000/svg">
<path d="M20.0002 29.3332C19.2638 29.3332 18.6668 28.7362 18.6668 27.9998C18.6668 27.2635 19.2638 26.6665 20.0002 26.6665C20.7365 26.6665 21.3335 27.2635 21.3335 27.9998C21.3335 28.7362 20.7365 29.3332 20.0002 29.3332Z" stroke="#232323" stroke-width="2.4" stroke-linecap="round" stroke-linejoin="round"/>
<path d="M5.33342 29.3332C4.59704 29.3332 4.00008 28.7362 4.00008 27.9998C4.00008 27.2635 4.59704 26.6665 5.33342 26.6665C6.06979 26.6665 6.66675 27.2635 6.66675 27.9998C6.66675 28.7362 6.06979 29.3332 5.33342 29.3332Z" stroke="#232323" stroke-width="2.4" stroke-linecap="round" stroke-linejoin="round"/>
<path d="M30.6667 1.33325H25.3334L21.7601 19.1866C21.6382 19.8004 21.3042 20.3519 20.8167 20.7443C20.3292 21.1368 19.7192 21.3452 19.0934 21.3333H6.13342C5.50768 21.3452 4.89766 21.1368 4.41014 20.7443C3.92263 20.3519 3.58868 19.8004 3.46675 19.1866L1.33342 7.99992H24.0001" fill="#BDF417"/>
<path d="M30.6667 1.33325H25.3334L21.7601 19.1866C21.6382 19.8004 21.3042 20.3519 20.8167 20.7443C20.3292 21.1368 19.7192 21.3452 19.0934 21.3333H6.13342C5.50768 21.3452 4.89766 21.1368 4.41014 20.7443C3.92263 20.3519 3.58868 19.8004 3.46675 19.1866L1.33342 7.99992H24.0001" stroke="#232323" stroke-width="2.4" stroke-linecap="round" stroke-linejoin="round"/>
</svg>
