<svg width="38" height="24" viewBox="0 0 38 24" fill="none" xmlns="http://www.w3.org/2000/svg">
<g id="&#240;&#159;&#166;&#134; icon &#34;keyboard&#34;">
<path id="Vector" d="M5.38555 0.0996094H32.8987C35.4313 0.0996094 37.4843 2.15262 37.4843 4.68514V19.3588C37.4843 21.8914 35.4313 23.9444 32.8987 23.9444H5.38555C2.85303 23.9444 0.800018 21.8914 0.800018 19.3588V4.68514C0.800018 2.15262 2.85303 0.0996094 5.38555 0.0996094ZM5.38555 1.93382C3.86604 1.93382 2.63423 3.16563 2.63423 4.68514V19.3588C2.63423 20.8783 3.86604 22.1102 5.38555 22.1102H32.8987C34.4182 22.1102 35.6501 20.8783 35.6501 19.3588V4.68514C35.6501 3.16563 34.4182 1.93382 32.8987 1.93382H5.38555ZM7.21976 7.43646C6.71326 7.43646 6.30266 7.02586 6.30266 6.51935C6.30266 6.01285 6.71326 5.60225 7.21976 5.60225H9.05397C9.56048 5.60225 9.97108 6.01285 9.97108 6.51935C9.97108 7.02586 9.56048 7.43646 9.05397 7.43646H7.21976ZM12.7224 7.43646C12.2159 7.43646 11.8053 7.02586 11.8053 6.51935C11.8053 6.01285 12.2159 5.60225 12.7224 5.60225H14.5566C15.0631 5.60225 15.4737 6.01285 15.4737 6.51935C15.4737 7.02586 15.0631 7.43646 14.5566 7.43646H12.7224ZM18.225 7.43646C17.7185 7.43646 17.3079 7.02586 17.3079 6.51935C17.3079 6.01285 17.7185 5.60225 18.225 5.60225H20.0592C20.5658 5.60225 20.9764 6.01285 20.9764 6.51935C20.9764 7.02586 20.5658 7.43646 20.0592 7.43646H18.225ZM23.7277 7.43646C23.2212 7.43646 22.8106 7.02586 22.8106 6.51935C22.8106 6.01285 23.2212 5.60225 23.7277 5.60225H25.5619C26.0684 5.60225 26.479 6.01285 26.479 6.51935C26.479 7.02586 26.0684 7.43646 25.5619 7.43646H23.7277ZM29.2303 7.43646C28.7238 7.43646 28.3132 7.02586 28.3132 6.51935C28.3132 6.01285 28.7238 5.60225 29.2303 5.60225H31.0645C31.571 5.60225 31.9816 6.01285 31.9816 6.51935C31.9816 7.02586 31.571 7.43646 31.0645 7.43646H29.2303ZM7.21976 12.9391C6.71326 12.9391 6.30266 12.5285 6.30266 12.022C6.30266 11.5155 6.71326 11.1049 7.21976 11.1049H9.05397C9.56048 11.1049 9.97108 11.5155 9.97108 12.022C9.97108 12.5285 9.56048 12.9391 9.05397 12.9391H7.21976ZM12.7224 12.9391C12.2159 12.9391 11.8053 12.5285 11.8053 12.022C11.8053 11.5155 12.2159 11.1049 12.7224 11.1049H14.5566C15.0631 11.1049 15.4737 11.5155 15.4737 12.022C15.4737 12.5285 15.0631 12.9391 14.5566 12.9391H12.7224ZM18.225 12.9391C17.7185 12.9391 17.3079 12.5285 17.3079 12.022C17.3079 11.5155 17.7185 11.1049 18.225 11.1049H20.0592C20.5658 11.1049 20.9764 11.5155 20.9764 12.022C20.9764 12.5285 20.5658 12.9391 20.0592 12.9391H18.225ZM23.7277 12.9391C23.2212 12.9391 22.8106 12.5285 22.8106 12.022C22.8106 11.5155 23.2212 11.1049 23.7277 11.1049H25.5619C26.0684 11.1049 26.479 11.5155 26.479 12.022C26.479 12.5285 26.0684 12.9391 25.5619 12.9391H23.7277ZM29.2303 12.9391C28.7238 12.9391 28.3132 12.5285 28.3132 12.022C28.3132 11.5155 28.7238 11.1049 29.2303 11.1049H31.0645C31.571 11.1049 31.9816 11.5155 31.9816 12.022C31.9816 12.5285 31.571 12.9391 31.0645 12.9391H29.2303ZM7.21976 18.4417C6.71326 18.4417 6.30266 18.0311 6.30266 17.5246C6.30266 17.0181 6.71326 16.6075 7.21976 16.6075H9.05397C9.56048 16.6075 9.97108 17.0181 9.97108 17.5246C9.97108 18.0311 9.56048 18.4417 9.05397 18.4417H7.21976ZM12.7224 18.4417C12.2159 18.4417 11.8053 18.0311 11.8053 17.5246C11.8053 17.0181 12.2159 16.6075 12.7224 16.6075H25.5619C26.0684 16.6075 26.479 17.0181 26.479 17.5246C26.479 18.0311 26.0684 18.4417 25.5619 18.4417H12.7224ZM29.2303 18.4417C28.7238 18.4417 28.3132 18.0311 28.3132 17.5246C28.3132 17.0181 28.7238 16.6075 29.2303 16.6075H31.0645C31.571 16.6075 31.9816 17.0181 31.9816 17.5246C31.9816 18.0311 31.571 18.4417 31.0645 18.4417H29.2303Z" fill="white"/>
</g>
</svg>
